<svg xmlns="http://www.w3.org/2000/svg" xmlns:xlink="http://www.w3.org/1999/xlink" width="1080" zoomAndPan="magnify" viewBox="0 0 810 809.999993" height="1080" preserveAspectRatio="xMidYMid meet" version="1.0"><defs><clipPath id="4a249aaf97"><path d="M 41 376 L 713 376 L 713 710.230469 L 41 710.230469 Z M 41 376 " clip-rule="nonzero"/></clipPath></defs><path fill="#f8e55b" d="M 661.425781 571.882812 C 680.902344 551.007812 729.953125 497.925781 741.769531 470.128906 C 748.988281 453.160156 754.058594 435.851562 757.378906 418.453125 C 707.058594 447.902344 644.023438 454.207031 586.242188 429.628906 C 489.234375 388.378906 444.042969 276.3125 485.296875 179.3125 C 494.9375 156.65625 508.542969 136.953125 524.824219 120.390625 C 421.582031 114.3125 321.03125 172.390625 278.246094 273.015625 C 266.644531 300.289062 259.21875 354.339844 257.535156 382.332031 " fill-opacity="1" fill-rule="nonzero"/><path fill="#565fa0" d="M 620.183594 529.699219 C 612.976562 529.699219 606.023438 530.804688 599.375 532.695312 C 595.023438 476.222656 550.503906 431.8125 496.136719 431.8125 C 464.792969 431.8125 436.757812 446.632812 417.742188 469.941406 C 394.53125 420.292969 346.386719 386.074219 290.59375 386.074219 C 213.707031 386.074219 151.242188 450.925781 148.839844 531.847656 C 143.140625 530.476562 137.230469 529.699219 131.136719 529.699219 C 86.902344 529.699219 51.039062 567.730469 51.039062 614.640625 C 51.039062 661.550781 86.902344 699.578125 131.136719 699.578125 C 136.277344 699.578125 615.042969 699.578125 620.183594 699.578125 C 664.417969 699.578125 700.28125 661.550781 700.28125 614.640625 C 700.28125 567.730469 664.417969 529.699219 620.183594 529.699219 Z M 620.183594 529.699219 " fill-opacity="1" fill-rule="nonzero"/><g clip-path="url(#4a249aaf97)"><path fill="#1f212b" d="M 622.171875 710.507812 L 131.410156 710.507812 C 81.664062 710.507812 41.191406 667.859375 41.191406 615.4375 C 41.191406 560.007812 86.488281 515.085938 140.039062 520.820312 C 147.769531 438.882812 212.335938 376.238281 291.429688 376.238281 C 345.109375 376.238281 393.703125 405.425781 421.296875 453.289062 C 442.144531 433.339844 469.304688 422.132812 497.703125 422.132812 C 552.945312 422.132812 600.253906 464.871094 609.753906 521.300781 C 613.921875 520.671875 618.078125 520.347656 622.183594 520.347656 C 671.933594 520.347656 712.40625 563.003906 712.40625 615.425781 C 712.40625 667.851562 671.914062 710.507812 622.171875 710.507812 Z M 131.410156 540.050781 C 92.523438 540.050781 60.882812 573.875 60.882812 615.4375 C 60.882812 657 92.523438 690.8125 131.410156 690.8125 L 622.171875 690.8125 C 661.058594 690.8125 692.699219 656.988281 692.699219 615.4375 C 692.699219 567.511719 650.160156 529.484375 603.996094 542.679688 C 601.148438 543.464844 598.097656 542.972656 595.664062 541.289062 C 593.242188 539.597656 591.707031 536.910156 591.46875 533.964844 C 587.492188 482.296875 546.289062 441.828125 497.691406 441.828125 C 470.496094 441.828125 444.597656 454.453125 426.652344 476.46875 C 424.507812 479.097656 421.128906 480.40625 417.8125 480.015625 C 414.445312 479.601562 411.539062 477.484375 410.101562 474.421875 C 387.472656 426.003906 341.996094 395.933594 291.429688 395.933594 C 219.457031 395.933594 161.308594 455.988281 159.03125 532.65625 C 158.933594 535.628906 157.527344 538.386719 155.164062 540.195312 C 152.808594 541.988281 149.765625 542.640625 146.882812 541.949219 C 141.664062 540.679688 136.453125 540.050781 131.410156 540.050781 Z M 131.410156 540.050781 " fill-opacity="1" fill-rule="nonzero"/></g><path fill="#1f212b" d="M 442.625 671.121094 L 403.238281 671.121094 C 400.519531 671.121094 398.3125 668.914062 398.3125 666.195312 C 398.3125 663.480469 400.519531 661.273438 403.238281 661.273438 L 442.625 661.273438 C 445.34375 661.273438 447.550781 663.480469 447.550781 666.195312 C 447.550781 668.914062 445.355469 671.121094 442.625 671.121094 Z M 383.542969 671.121094 L 373.695312 671.121094 C 370.976562 671.121094 368.773438 668.914062 368.773438 666.195312 C 368.773438 663.480469 370.976562 661.273438 373.695312 661.273438 L 383.542969 661.273438 C 386.261719 661.273438 388.464844 663.480469 388.464844 666.195312 C 388.464844 668.914062 386.269531 671.121094 383.542969 671.121094 Z M 363.847656 671.121094 L 117.664062 671.121094 C 114.945312 671.121094 112.742188 668.914062 112.742188 666.195312 C 112.742188 663.480469 114.945312 661.273438 117.664062 661.273438 L 363.847656 661.273438 C 366.566406 661.273438 368.773438 663.480469 368.773438 666.195312 C 368.773438 668.914062 366.574219 671.121094 363.847656 671.121094 Z M 694.246094 548.960938 C 691.84375 548.960938 689.429688 548.085938 687.53125 546.3125 C 683.550781 542.601562 683.324219 536.367188 687.039062 532.398438 C 706.230469 511.820312 721.601562 488.136719 732.710938 462.015625 C 736.707031 452.609375 740.125 442.8125 742.929688 432.730469 C 691.921875 455.769531 634.523438 456.609375 582.378906 434.421875 C 533.046875 413.449219 494.828125 374.515625 474.777344 324.800781 C 454.730469 275.082031 455.25 220.53125 476.226562 171.199219 C 483.167969 154.863281 492.238281 139.601562 503.296875 125.636719 C 409.5 128.246094 324.398438 185.347656 287.273438 272.609375 C 276.375 298.273438 269.992188 325.261719 268.347656 352.792969 C 268.035156 358.230469 263.316406 362.167969 257.929688 362.03125 C 252.496094 361.703125 248.359375 357.039062 248.691406 351.613281 C 250.476562 321.824219 257.359375 292.648438 269.15625 264.890625 C 312.257812 163.558594 415.203125 99.632812 525.382812 106.300781 C 529.242188 106.515625 532.601562 108.976562 533.992188 112.589844 C 535.386719 116.183594 534.542969 120.273438 531.832031 123.027344 C 515.761719 139.394531 503.148438 158.191406 494.335938 178.917969 C 475.417969 223.417969 474.945312 272.601562 493.035156 317.433594 C 511.113281 362.277344 545.582031 397.378906 590.070312 416.304688 C 643.136719 438.882812 702.300781 435.003906 752.375 405.691406 C 755.703125 403.742188 759.867188 403.90625 763.03125 406.152344 C 766.179688 408.378906 767.746094 412.238281 767.019531 416.039062 C 763.453125 434.738281 757.996094 452.796875 750.800781 469.722656 C 738.796875 497.964844 722.183594 523.574219 701.414062 545.828125 C 699.503906 547.917969 696.886719 548.960938 694.246094 548.960938 Z M 694.246094 548.960938 " fill-opacity="1" fill-rule="nonzero"/><path fill="#f8e55b" d="M 158.816406 309.171875 L 170.496094 332.824219 L 196.601562 336.613281 L 177.714844 355.027344 L 182.175781 381.023438 L 158.816406 368.753906 L 135.46875 381.023438 L 139.929688 355.027344 L 121.042969 336.613281 L 147.148438 332.824219 Z M 158.816406 309.171875 " fill-opacity="1" fill-rule="nonzero"/><path fill="#1f212b" d="M 135.46875 385.949219 C 134.445312 385.949219 133.429688 385.632812 132.574219 385.003906 C 131.058594 383.910156 130.296875 382.039062 130.613281 380.1875 L 134.640625 356.742188 L 117.613281 340.128906 C 116.265625 338.820312 115.785156 336.859375 116.363281 335.078125 C 116.945312 333.285156 118.492188 331.996094 120.332031 331.722656 L 143.878906 328.304688 L 154.40625 306.964844 C 156.058594 303.617188 161.582031 303.617188 163.226562 306.964844 L 173.753906 328.304688 L 197.308594 331.722656 C 199.160156 331.988281 200.707031 333.285156 201.277344 335.078125 C 201.859375 336.859375 201.375 338.820312 200.027344 340.128906 L 183 356.742188 L 187.019531 380.195312 C 187.335938 382.046875 186.574219 383.910156 185.058594 385.003906 C 183.554688 386.105469 181.535156 386.253906 179.878906 385.375 L 158.816406 374.308594 L 137.753906 385.386719 C 137.035156 385.769531 136.257812 385.949219 135.46875 385.949219 Z M 158.816406 363.820312 C 159.605469 363.820312 160.390625 364.019531 161.101562 364.394531 L 175.625 372.023438 L 172.859375 355.847656 C 172.59375 354.25 173.113281 352.625 174.285156 351.492188 L 186.023438 340.050781 L 169.785156 337.699219 C 168.191406 337.460938 166.792969 336.457031 166.082031 335.011719 L 158.816406 320.289062 L 151.558594 335 C 150.851562 336.449219 149.453125 337.453125 147.855469 337.6875 L 131.628906 340.042969 L 143.367188 351.484375 C 144.527344 352.617188 145.058594 354.25 144.792969 355.847656 L 142.015625 372.015625 L 156.542969 364.382812 C 157.242188 364.019531 158.027344 363.820312 158.816406 363.820312 Z M 158.816406 363.820312 " fill-opacity="1" fill-rule="nonzero"/><path fill="#f8e55b" d="M 500.734375 500.355469 L 512.414062 524.019531 L 538.519531 527.808594 L 519.632812 546.222656 L 524.082031 572.21875 L 500.734375 559.941406 L 477.386719 572.21875 L 481.847656 546.222656 L 462.960938 527.808594 L 489.066406 524.019531 Z M 500.734375 500.355469 " fill-opacity="1" fill-rule="nonzero"/><path fill="#1f212b" d="M 477.398438 577.140625 C 476.375 577.140625 475.359375 576.828125 474.503906 576.195312 C 472.984375 575.105469 472.226562 573.234375 472.542969 571.390625 L 476.5625 547.9375 L 459.535156 531.324219 C 458.175781 530.027344 457.703125 528.066406 458.273438 526.285156 C 458.855469 524.492188 460.402344 523.203125 462.242188 522.925781 L 485.796875 519.507812 L 496.324219 498.171875 C 497.980469 494.824219 503.503906 494.824219 505.148438 498.171875 L 515.675781 519.507812 L 539.21875 522.925781 C 541.070312 523.191406 542.617188 524.492188 543.1875 526.285156 C 543.769531 528.066406 543.285156 530.027344 541.9375 531.335938 L 524.910156 547.945312 L 528.9375 571.390625 C 529.253906 573.242188 528.496094 575.113281 526.980469 576.207031 C 525.460938 577.308594 523.453125 577.46875 521.800781 576.582031 L 500.734375 565.503906 L 479.671875 576.582031 C 478.964844 576.964844 478.183594 577.140625 477.398438 577.140625 Z M 473.539062 531.246094 L 485.277344 542.6875 C 486.4375 543.820312 486.96875 545.445312 486.703125 547.039062 L 483.9375 563.21875 L 498.460938 555.585938 C 499.890625 554.839844 501.613281 554.839844 503.039062 555.585938 L 517.566406 563.21875 L 514.789062 547.050781 C 514.523438 545.457031 515.042969 543.820312 516.214844 542.6875 L 527.953125 531.246094 L 511.726562 528.894531 C 510.128906 528.65625 508.730469 527.652344 508.023438 526.203125 L 500.765625 511.492188 L 493.507812 526.203125 C 492.800781 527.652344 491.402344 528.65625 489.804688 528.894531 Z M 400.550781 194.347656 C 398.816406 194.347656 397.140625 193.433594 396.234375 191.816406 C 394.917969 189.433594 395.773438 186.441406 398.144531 185.113281 C 414.816406 175.867188 432.59375 171.59375 450.691406 172.3125 C 453.410156 172.429688 455.515625 174.722656 455.410156 177.441406 C 455.289062 180.148438 453.015625 182.246094 450.277344 182.160156 C 433.863281 181.410156 417.980469 185.359375 402.921875 193.730469 C 402.183594 194.152344 401.367188 194.347656 400.550781 194.347656 Z M 313.234375 348.292969 C 310.59375 348.292969 308.417969 346.214844 308.308594 343.566406 C 308.113281 338.613281 308.121094 333.59375 308.328125 328.519531 C 310.398438 279.070312 331.84375 233.855469 365.710938 207.5625 C 367.835938 205.890625 370.9375 206.261719 372.613281 208.429688 C 374.285156 210.578125 373.890625 213.667969 371.746094 215.332031 C 340.136719 239.871094 320.117188 282.339844 318.175781 328.925781 C 317.96875 333.730469 317.96875 338.484375 318.15625 343.183594 C 318.265625 345.890625 316.148438 348.183594 313.429688 348.304688 C 313.351562 348.292969 313.292969 348.292969 313.234375 348.292969 Z M 313.234375 348.292969 " fill-opacity="1" fill-rule="nonzero"/></svg>