<svg xmlns="http://www.w3.org/2000/svg" xmlns:xlink="http://www.w3.org/1999/xlink" width="1080" zoomAndPan="magnify" viewBox="0 0 810 809.999993" height="1080" preserveAspectRatio="xMidYMid meet" version="1.0"><defs><clipPath id="2e3a1459e0"><path d="M 218 218 L 769.5 218 L 769.5 551 L 218 551 Z M 218 218 " clip-rule="nonzero"/></clipPath><clipPath id="12e21bde12"><path d="M 293 81.960938 L 324 81.960938 L 324 160 L 293 160 Z M 293 81.960938 " clip-rule="nonzero"/></clipPath><clipPath id="c47b952cc9"><path d="M 40.5 335 L 119 335 L 119 365 L 40.5 365 Z M 40.5 335 " clip-rule="nonzero"/></clipPath><clipPath id="d67c0bed86"><path d="M 107 395 L 659 395 L 659 727.710938 L 107 727.710938 Z M 107 395 " clip-rule="nonzero"/></clipPath></defs><g clip-path="url(#2e3a1459e0)"><path fill="#a5ddf8" d="M 687.832031 364.605469 C 691.597656 353.464844 693.644531 341.53125 693.644531 329.117188 C 693.644531 267.949219 644.035156 218.367188 582.839844 218.367188 C 538.910156 218.367188 500.957031 243.914062 483.03125 280.953125 C 470.691406 273.96875 456.445312 269.964844 441.246094 269.964844 C 402.316406 269.964844 369.523438 296.136719 359.460938 331.835938 C 350.050781 329.25 340.152344 327.867188 329.917969 327.867188 C 268.433594 327.867188 218.589844 377.6875 218.589844 439.140625 C 218.589844 500.59375 268.433594 550.414062 329.917969 550.414062 L 676.164062 550.414062 C 727.707031 550.414062 769.492188 508.652344 769.492188 457.136719 C 769.492188 409.566406 733.863281 370.34375 687.832031 364.605469 " fill-opacity="1" fill-rule="nonzero"/></g><path fill="#f9ae00" d="M 217.183594 458.996094 C 185.945312 432.878906 166.074219 393.632812 166.074219 349.75 C 166.074219 271.128906 229.839844 207.402344 308.492188 207.402344 C 387.148438 207.402344 450.914062 271.128906 450.914062 349.75 C 450.914062 428.367188 387.148438 492.09375 308.492188 492.09375 C 273.742188 492.09375 241.902344 479.660156 217.183594 458.996094 " fill-opacity="1" fill-rule="nonzero"/><g clip-path="url(#12e21bde12)"><path fill="#fdd83b" d="M 308.492188 159.628906 C 300.472656 159.628906 293.972656 153.128906 293.972656 145.113281 L 293.972656 96.410156 C 293.972656 88.394531 300.472656 81.894531 308.492188 81.894531 C 316.515625 81.894531 323.015625 88.394531 323.015625 96.410156 L 323.015625 145.113281 C 323.015625 153.128906 316.515625 159.628906 308.492188 159.628906 " fill-opacity="1" fill-rule="nonzero"/></g><path fill="#fdd83b" d="M 308.492188 617.601562 C 300.472656 617.601562 293.972656 611.101562 293.972656 603.085938 L 293.972656 554.382812 C 293.972656 546.367188 300.472656 539.867188 308.492188 539.867188 C 316.515625 539.867188 323.015625 546.367188 323.015625 554.382812 L 323.015625 603.085938 C 323.015625 611.101562 316.515625 617.601562 308.492188 617.601562 " fill-opacity="1" fill-rule="nonzero"/><path fill="#fdd83b" d="M 206.140625 187.046875 C 201.117188 187.046875 196.242188 184.4375 193.550781 179.785156 L 169.183594 137.605469 C 165.171875 130.660156 167.554688 121.789062 174.503906 117.78125 C 181.445312 113.769531 190.328125 116.148438 194.339844 123.09375 L 218.703125 165.269531 C 222.714844 172.214844 220.332031 181.089844 213.386719 185.097656 C 211.101562 186.417969 208.601562 187.046875 206.140625 187.046875 " fill-opacity="1" fill-rule="nonzero"/><path fill="#fdd83b" d="M 435.238281 583.660156 C 430.21875 583.660156 425.339844 581.058594 422.648438 576.402344 L 398.285156 534.226562 C 394.273438 527.28125 396.65625 518.410156 403.597656 514.398438 C 410.546875 510.390625 419.429688 512.765625 423.4375 519.710938 L 447.800781 561.890625 C 451.808594 568.828125 449.433594 577.707031 442.484375 581.714844 C 440.199219 583.039062 437.703125 583.660156 435.238281 583.660156 " fill-opacity="1" fill-rule="nonzero"/><path fill="#fdd83b" d="M 131.171875 261.949219 C 128.710938 261.949219 126.214844 261.320312 123.925781 260 L 81.722656 235.648438 C 74.78125 231.640625 72.398438 222.761719 76.410156 215.820312 C 80.417969 208.882812 89.300781 206.5 96.246094 210.507812 L 138.449219 234.859375 C 145.390625 238.867188 147.773438 247.746094 143.765625 254.6875 C 141.074219 259.339844 136.191406 261.949219 131.171875 261.949219 " fill-opacity="1" fill-rule="nonzero"/><path fill="#fdd83b" d="M 527.984375 490.933594 C 525.523438 490.933594 523.027344 490.308594 520.734375 488.988281 L 478.539062 464.636719 C 471.59375 460.628906 469.210938 451.75 473.222656 444.808594 C 477.234375 437.863281 486.117188 435.488281 493.058594 439.496094 L 535.257812 463.847656 C 542.207031 467.855469 544.582031 476.730469 540.574219 483.675781 C 537.882812 488.332031 533.003906 490.933594 527.984375 490.933594 " fill-opacity="1" fill-rule="nonzero"/><g clip-path="url(#c47b952cc9)"><path fill="#fdd83b" d="M 103.757812 364.265625 L 55.027344 364.265625 C 47.007812 364.265625 40.507812 357.761719 40.507812 349.75 C 40.507812 341.734375 47.007812 335.238281 55.027344 335.238281 L 103.757812 335.238281 C 111.777344 335.238281 118.277344 341.734375 118.277344 349.75 C 118.277344 357.761719 111.777344 364.265625 103.757812 364.265625 " fill-opacity="1" fill-rule="nonzero"/></g><path fill="#fdd83b" d="M 89 490.933594 C 83.980469 490.933594 79.101562 488.332031 76.410156 483.675781 C 72.398438 476.730469 74.78125 467.855469 81.722656 463.847656 L 123.925781 439.496094 C 130.871094 435.488281 139.753906 437.871094 143.765625 444.808594 C 147.773438 451.75 145.390625 460.628906 138.449219 464.636719 L 96.246094 488.988281 C 93.960938 490.308594 91.464844 490.933594 89 490.933594 " fill-opacity="1" fill-rule="nonzero"/><path fill="#fdd83b" d="M 485.808594 261.949219 C 480.796875 261.949219 475.910156 259.347656 473.222656 254.6875 C 469.210938 247.746094 471.59375 238.867188 478.539062 234.859375 L 520.734375 210.507812 C 527.683594 206.5 536.566406 208.875 540.574219 215.820312 C 544.582031 222.761719 542.207031 231.640625 535.257812 235.648438 L 493.058594 260 C 490.773438 261.320312 488.277344 261.949219 485.808594 261.949219 " fill-opacity="1" fill-rule="nonzero"/><path fill="#fdd83b" d="M 181.746094 583.660156 C 179.285156 583.660156 176.789062 583.039062 174.503906 581.714844 C 167.554688 577.707031 165.171875 568.828125 169.183594 561.890625 L 193.550781 519.710938 C 197.5625 512.765625 206.445312 510.390625 213.386719 514.398438 C 220.332031 518.410156 222.714844 527.28125 218.703125 534.226562 L 194.339844 576.402344 C 191.644531 581.058594 186.765625 583.660156 181.746094 583.660156 " fill-opacity="1" fill-rule="nonzero"/><path fill="#fdd83b" d="M 410.847656 187.046875 C 408.386719 187.046875 405.890625 186.417969 403.597656 185.097656 C 396.65625 181.089844 394.273438 172.214844 398.285156 165.269531 L 422.648438 123.09375 C 426.65625 116.148438 435.539062 113.765625 442.484375 117.78125 C 449.433594 121.789062 451.808594 130.660156 447.800781 137.605469 L 423.4375 179.785156 C 420.746094 184.4375 415.867188 187.046875 410.847656 187.046875 " fill-opacity="1" fill-rule="nonzero"/><g clip-path="url(#d67c0bed86)"><path fill="#80cdf6" d="M 576.484375 541.824219 C 580.253906 530.683594 582.292969 518.75 582.292969 506.335938 C 582.292969 445.171875 532.683594 395.585938 471.488281 395.585938 C 427.566406 395.585938 389.609375 421.132812 371.683594 458.171875 C 359.34375 451.195312 345.09375 447.191406 329.902344 447.191406 C 290.972656 447.191406 258.179688 473.363281 248.109375 509.054688 C 238.703125 506.46875 228.800781 505.085938 218.574219 505.085938 C 157.089844 505.085938 107.246094 554.90625 107.246094 616.359375 C 107.246094 677.816406 157.089844 727.632812 218.574219 727.632812 L 564.816406 727.632812 C 616.359375 727.632812 658.140625 685.871094 658.140625 634.355469 C 658.140625 586.785156 622.511719 547.566406 576.484375 541.824219 " fill-opacity="1" fill-rule="nonzero"/></g></svg>