<svg xmlns="http://www.w3.org/2000/svg" xmlns:xlink="http://www.w3.org/1999/xlink" width="1080" zoomAndPan="magnify" viewBox="0 0 810 809.999993" height="1080" preserveAspectRatio="xMidYMid meet" version="1.0"><defs><g/></defs><g fill="#000000" fill-opacity="1"><g transform="translate(416.524498, 685.30029)"><g/></g></g><g fill="#000000" fill-opacity="1"><g transform="translate(390.346454, 685.743939)"><g><path d="M -26.84375 20.953125 C -22.9375 21.484375 -19.8125 23.289062 -17.46875 26.375 C -15.132812 29.46875 -14.234375 32.96875 -14.765625 36.875 C -15.316406 40.84375 -17.132812 44 -20.21875 46.34375 C -23.3125 48.6875 -26.8125 49.59375 -30.71875 49.0625 C -34.6875 48.507812 -37.859375 46.6875 -40.234375 43.59375 C -42.617188 40.5 -43.535156 36.96875 -42.984375 33 C -42.453125 29.09375 -40.617188 25.96875 -37.484375 23.625 C -34.359375 21.289062 -30.8125 20.398438 -26.84375 20.953125 Z M -26.84375 20.953125 "/></g></g></g><g fill="#000000" fill-opacity="1"><g transform="translate(347.872006, 679.674522)"><g/></g></g><g fill="#000000" fill-opacity="1"><g transform="translate(324.25433, 679.125079)"><g><path d="M -135.21875 20 L -76.921875 -40.5 L -66.46875 -35 L -80.140625 31.1875 L -32.671875 -17.203125 L -22.28125 -11.84375 L -39.9375 70.15625 L -49.890625 64.921875 L -33.578125 -3.8125 L -82.671875 47.65625 L -93.125 42.15625 L -77.734375 -26.796875 L -125.1875 25.28125 Z M -135.21875 20 "/></g></g></g><g fill="#000000" fill-opacity="1"><g transform="translate(234.533029, 629.382005)"><g><path d="M -63.5625 39.265625 L -45.09375 19.609375 L -66.515625 -0.53125 L -60.578125 -6.875 L -39.15625 13.265625 L -20.140625 -6.984375 L -44.09375 -29.5 L -38.140625 -35.828125 L -6.484375 -6.09375 L -61.796875 52.796875 L -93.453125 23.0625 L -87.515625 16.75 Z M -63.5625 39.265625 "/></g></g></g><g fill="#000000" fill-opacity="1"><g transform="translate(195.890002, 594.976417)"><g><path d="M -62.375 -16.421875 C -63.675781 -19.097656 -64.238281 -21.984375 -64.0625 -25.078125 C -63.882812 -28.171875 -63.035156 -31.125 -61.515625 -33.9375 C -60.003906 -36.75 -57.921875 -39.085938 -55.265625 -40.953125 C -51.921875 -43.304688 -48.304688 -44.570312 -44.421875 -44.75 C -40.546875 -44.9375 -36.691406 -43.945312 -32.859375 -41.78125 C -29.023438 -39.613281 -25.554688 -36.320312 -22.453125 -31.90625 L -5.125 -7.28125 L -71.125 39.140625 L -87.78125 15.453125 C -90.9375 10.972656 -92.878906 6.632812 -93.609375 2.4375 C -94.347656 -1.757812 -94.007812 -5.535156 -92.59375 -8.890625 C -91.175781 -12.242188 -88.890625 -15.03125 -85.734375 -17.25 C -81.816406 -20.007812 -77.832031 -21.226562 -73.78125 -20.90625 C -69.738281 -20.59375 -65.9375 -19.097656 -62.375 -16.421875 Z M -48.6875 10.46875 L -58.875 -4.015625 C -61.71875 -8.054688 -64.863281 -10.515625 -68.3125 -11.390625 C -71.757812 -12.265625 -75.148438 -11.523438 -78.484375 -9.171875 C -81.835938 -6.816406 -83.679688 -3.867188 -84.015625 -0.328125 C -84.359375 3.203125 -83.0625 7.050781 -80.125 11.21875 L -70.078125 25.515625 Z M -29.03125 -26.15625 C -32.039062 -30.4375 -35.394531 -33.066406 -39.09375 -34.046875 C -42.800781 -35.023438 -46.457031 -34.253906 -50.0625 -31.734375 C -53.71875 -29.148438 -55.710938 -25.851562 -56.046875 -21.84375 C -56.390625 -17.84375 -55.070312 -13.722656 -52.09375 -9.484375 L -41.578125 5.46875 L -18.296875 -10.90625 Z M -29.03125 -26.15625 "/></g></g></g><g fill="#000000" fill-opacity="1"><g transform="translate(159.55735, 541.411257)"><g/></g></g><g fill="#000000" fill-opacity="1"><g transform="translate(146.336773, 520.754822)"><g><path d="M -86.921875 -10.625 C -89.328125 -19.082031 -89.832031 -26.859375 -88.4375 -33.953125 C -87.050781 -41.054688 -83.898438 -47.09375 -78.984375 -52.0625 C -74.066406 -57.039062 -67.640625 -60.664062 -59.703125 -62.9375 C -51.753906 -65.195312 -44.394531 -65.503906 -37.625 -63.859375 C -30.851562 -62.210938 -25.046875 -58.726562 -20.203125 -53.40625 C -15.359375 -48.082031 -11.734375 -41.191406 -9.328125 -32.734375 L -2.4375 -8.5625 L -80.03125 13.546875 Z M -17.6875 -30.359375 C -20.539062 -40.367188 -25.367188 -47.253906 -32.171875 -51.015625 C -38.972656 -54.785156 -47.164062 -55.304688 -56.75 -52.578125 C -66.394531 -49.828125 -73.171875 -45.023438 -77.078125 -38.171875 C -80.984375 -31.316406 -81.519531 -22.914062 -78.6875 -12.96875 L -74.6875 1.0625 L -13.6875 -16.328125 Z M -17.6875 -30.359375 "/></g></g></g><g fill="#000000" fill-opacity="1"><g transform="translate(126.522437, 450.082581)"><g><path d="M -73.125 -15.328125 L -46.1875 -16.859375 L -47.84375 -46.21875 L -39.171875 -46.71875 L -37.515625 -17.359375 L -9.78125 -18.921875 L -11.640625 -51.75 L -2.96875 -52.25 L -0.5 -8.890625 L -81.171875 -4.3125 L -83.640625 -47.671875 L -74.984375 -48.15625 Z M -73.125 -15.328125 "/></g></g></g><g fill="#000000" fill-opacity="1"><g transform="translate(121.731165, 398.903215)"><g><path d="M -67.75 -87.375 L 7.125 -44.59375 L 5.203125 -32.59375 L -79.265625 -15.25 L -77.5 -26.34375 L -4.796875 -40.390625 L -69.5 -76.40625 Z M -67.75 -87.375 "/></g></g></g><g fill="#000000" fill-opacity="1"><g transform="translate(132.903043, 329.770456)"><g><path d="M -60.0625 -44.4375 L -34.953125 -34.59375 L -24.21875 -61.96875 L -16.125 -58.796875 L -26.859375 -31.421875 L -1 -21.28125 L 11 -51.890625 L 19.09375 -48.71875 L 3.25 -8.296875 L -71.96875 -37.78125 L -56.125 -78.203125 L -48.0625 -75.046875 Z M -60.0625 -44.4375 "/></g></g></g><g fill="#000000" fill-opacity="1"><g transform="translate(152.022102, 280.55226)"><g><path d="M 2.75 -21.078125 L 17.390625 -45.234375 L 24.71875 -40.796875 L 4.609375 -7.625 L -64.40625 -49.421875 L -58.9375 -58.4375 Z M 2.75 -21.078125 "/></g></g></g><g fill="#000000" fill-opacity="1"><g transform="translate(171.053832, 243.030415)"><g><path d="M 32.109375 -32.265625 C 26.921875 -26.859375 20.921875 -23.144531 14.109375 -21.125 C 7.296875 -19.101562 0.378906 -18.972656 -6.640625 -20.734375 C -13.660156 -22.503906 -20.007812 -26.117188 -25.6875 -31.578125 C -31.363281 -37.023438 -35.226562 -43.21875 -37.28125 -50.15625 C -39.34375 -57.101562 -39.5 -64.019531 -37.75 -70.90625 C -36.007812 -77.789062 -32.546875 -83.9375 -27.359375 -89.34375 C -22.128906 -94.789062 -16.109375 -98.523438 -9.296875 -100.546875 C -2.492188 -102.566406 4.390625 -102.691406 11.359375 -100.921875 C 18.328125 -99.160156 24.679688 -95.53125 30.421875 -90.03125 C 36.148438 -84.519531 40.039062 -78.316406 42.09375 -71.421875 C 44.144531 -64.535156 44.300781 -57.648438 42.5625 -50.765625 C 40.820312 -43.878906 37.335938 -37.710938 32.109375 -32.265625 Z M 25.515625 -38.59375 C 29.410156 -42.65625 31.972656 -47.222656 33.203125 -52.296875 C 34.429688 -57.367188 34.1875 -62.519531 32.46875 -67.75 C 30.75 -72.988281 27.582031 -77.828125 22.96875 -82.265625 C 18.289062 -86.753906 13.316406 -89.734375 8.046875 -91.203125 C 2.773438 -92.679688 -2.351562 -92.710938 -7.34375 -91.296875 C -12.34375 -89.890625 -16.816406 -87.128906 -20.765625 -83.015625 C -24.734375 -78.890625 -27.316406 -74.300781 -28.515625 -69.25 C -29.710938 -64.207031 -29.46875 -59.082031 -27.78125 -53.875 C -26.09375 -48.675781 -22.910156 -43.832031 -18.234375 -39.34375 C -13.617188 -34.90625 -8.660156 -31.929688 -3.359375 -30.421875 C 1.941406 -28.921875 7.101562 -28.890625 12.125 -30.328125 C 17.144531 -31.765625 21.609375 -34.519531 25.515625 -38.59375 Z M 25.515625 -38.59375 "/></g></g></g><g fill="#000000" fill-opacity="1"><g transform="translate(227.798993, 184.384984)"><g><path d="M 23.03125 -81.71875 C 26.59375 -76.019531 27.601562 -70.070312 26.0625 -63.875 C 24.519531 -57.675781 19.765625 -52.082031 11.796875 -47.09375 L -1.359375 -38.875 L 16.5 -10.3125 L 7.546875 -4.71875 L -35.234375 -73.125 L -13.125 -86.9375 C -5.40625 -91.769531 1.628906 -93.578125 7.984375 -92.359375 C 14.335938 -91.148438 19.351562 -87.601562 23.03125 -81.71875 Z M 7.1875 -54.453125 C 12.15625 -57.566406 15.140625 -60.941406 16.140625 -64.578125 C 17.148438 -68.210938 16.40625 -72.023438 13.90625 -76.015625 C 8.632812 -84.453125 1.160156 -85.640625 -8.515625 -79.578125 L -21.671875 -71.359375 L -5.96875 -46.234375 Z M 7.1875 -54.453125 "/></g></g></g><g fill="#000000" fill-opacity="1"><g transform="translate(278.039061, 152.535477)"><g><path d="M -7.28125 -74.34375 L 2.25 -49.125 L 29.75 -59.515625 L 32.8125 -51.375 L 5.3125 -40.984375 L 15.140625 -15 L 45.890625 -26.609375 L 48.953125 -18.484375 L 8.328125 -3.140625 L -20.21875 -78.71875 L 20.40625 -94.0625 L 23.46875 -85.953125 Z M -7.28125 -74.34375 "/></g></g></g><g fill="#000000" fill-opacity="1"><g transform="translate(325.978543, 132.996773)"><g><path d="M 50.765625 -8.109375 L 26.578125 -37.671875 L 14 -35.65625 L 19.203125 -3.0625 L 8.796875 -1.40625 L -3.921875 -81.078125 L 21.8125 -85.1875 C 27.832031 -86.144531 33.082031 -85.925781 37.5625 -84.53125 C 42.039062 -83.132812 45.585938 -80.847656 48.203125 -77.671875 C 50.816406 -74.492188 52.484375 -70.65625 53.203125 -66.15625 C 54.078125 -60.675781 53.269531 -55.585938 50.78125 -50.890625 C 48.289062 -46.203125 43.992188 -42.664062 37.890625 -40.28125 L 63.21875 -10.09375 Z M 12.671875 -43.984375 L 28 -46.4375 C 33.632812 -47.332031 37.640625 -49.394531 40.015625 -52.625 C 42.390625 -55.863281 43.203125 -59.804688 42.453125 -64.453125 C 41.703125 -69.191406 39.726562 -72.628906 36.53125 -74.765625 C 33.332031 -76.898438 28.878906 -77.515625 23.171875 -76.609375 L 7.84375 -74.15625 Z M 12.671875 -43.984375 "/></g></g></g><g fill="#000000" fill-opacity="1"><g transform="translate(389.542543, 123.937033)"><g/></g></g><g fill="#000000" fill-opacity="1"><g transform="translate(415.694812, 123.128875)"><g><path d="M 26.5625 -21.328125 C 22.644531 -21.804688 19.492188 -23.570312 17.109375 -26.625 C 14.722656 -29.6875 13.769531 -33.171875 14.25 -37.078125 C 14.75 -41.054688 16.523438 -44.238281 19.578125 -46.625 C 22.628906 -49.007812 26.113281 -49.960938 30.03125 -49.484375 C 34.007812 -48.992188 37.210938 -47.210938 39.640625 -44.140625 C 42.066406 -41.078125 43.03125 -37.554688 42.53125 -33.578125 C 42.050781 -29.671875 40.265625 -26.53125 37.171875 -24.15625 C 34.078125 -21.78125 30.539062 -20.835938 26.5625 -21.328125 Z M 26.5625 -21.328125 "/></g></g></g><g fill="#000000" fill-opacity="1"><g transform="translate(458.2432, 128.606275)"><g/></g></g><g fill="#000000" fill-opacity="1"><g transform="translate(481.863871, 128.826795)"><g><path d="M 134.921875 -21.875 L 77.484375 39.421875 L 66.953125 34.0625 L 79.703125 -32.3125 L 32.90625 16.75 L 22.4375 11.53125 L 38.96875 -70.703125 L 48.96875 -65.609375 L 33.625 3.34375 L 81.984375 -48.8125 L 92.515625 -43.453125 L 78.09375 25.71875 L 124.8125 -27.015625 Z M 134.921875 -21.875 "/></g></g></g><g fill="#000000" fill-opacity="1"><g transform="translate(572.268861, 177.315675)"><g><path d="M 63 -40.125 L 44.8125 -20.21875 L 66.53125 -0.390625 L 60.671875 6.03125 L 38.953125 -13.796875 L 20.21875 6.703125 L 44.5 28.859375 L 38.640625 35.28125 L 6.578125 6 L 61.0625 -53.65625 L 93.125 -24.375 L 87.28125 -17.96875 Z M 63 -40.125 "/></g></g></g><g fill="#000000" fill-opacity="1"><g transform="translate(611.388446, 211.179866)"><g><path d="M 62.578125 15.546875 C 63.929688 18.203125 64.539062 21.078125 64.40625 24.171875 C 64.269531 27.273438 63.460938 30.238281 61.984375 33.0625 C 60.515625 35.894531 58.46875 38.265625 55.84375 40.171875 C 52.53125 42.566406 48.929688 43.882812 45.046875 44.125 C 41.171875 44.363281 37.300781 43.425781 33.4375 41.3125 C 29.570312 39.207031 26.054688 35.96875 22.890625 31.59375 L 5.21875 7.21875 L 70.5625 -40.109375 L 87.546875 -16.671875 C 90.765625 -12.234375 92.769531 -7.921875 93.5625 -3.734375 C 94.363281 0.453125 94.078125 4.234375 92.703125 7.609375 C 91.335938 10.984375 89.09375 13.800781 85.96875 16.0625 C 82.09375 18.863281 78.128906 20.132812 74.078125 19.875 C 70.035156 19.613281 66.203125 18.171875 62.578125 15.546875 Z M 48.53125 -11.140625 L 58.921875 3.203125 C 61.816406 7.203125 64.992188 9.613281 68.453125 10.4375 C 71.921875 11.269531 75.3125 10.488281 78.625 8.09375 C 81.9375 5.6875 83.734375 2.710938 84.015625 -0.828125 C 84.304688 -4.367188 82.957031 -8.203125 79.96875 -12.328125 L 69.71875 -26.484375 Z M 29.375 25.75 C 32.445312 30 35.84375 32.585938 39.5625 33.515625 C 43.289062 34.441406 46.9375 33.613281 50.5 31.03125 C 54.125 28.40625 56.078125 25.082031 56.359375 21.0625 C 56.640625 17.050781 55.265625 12.953125 52.234375 8.765625 L 41.5 -6.046875 L 18.4375 10.65625 Z M 29.375 25.75 "/></g></g></g><g fill="#000000" fill-opacity="1"><g transform="translate(648.465005, 264.233829)"><g/></g></g><g fill="#000000" fill-opacity="1"><g transform="translate(661.974759, 284.704199)"><g><path d="M 87.0625 9.40625 C 89.59375 17.84375 90.210938 25.613281 88.921875 32.71875 C 87.628906 39.832031 84.554688 45.910156 79.703125 50.953125 C 74.859375 55.992188 68.484375 59.703125 60.578125 62.078125 C 52.660156 64.453125 45.304688 64.863281 38.515625 63.3125 C 31.722656 61.757812 25.867188 58.359375 20.953125 53.109375 C 16.035156 47.867188 12.3125 41.03125 9.78125 32.59375 L 2.5625 8.53125 L 79.84375 -14.65625 Z M 18.109375 30.09375 C 21.097656 40.070312 26.019531 46.894531 32.875 50.5625 C 39.738281 54.238281 47.941406 54.644531 57.484375 51.78125 C 67.085938 48.90625 73.789062 44.007812 77.59375 37.09375 C 81.40625 30.1875 81.828125 21.78125 78.859375 11.875 L 74.671875 -2.09375 L 13.921875 16.125 Z M 18.109375 30.09375 "/></g></g></g><g fill="#000000" fill-opacity="1"><g transform="translate(682.765772, 355.09368)"><g><path d="M 73.3125 14.3125 L 46.421875 16.21875 L 48.5 45.546875 L 39.828125 46.15625 L 37.75 16.828125 L 10.046875 18.796875 L 12.359375 51.59375 L 3.6875 52.203125 L 0.625 8.890625 L 81.21875 3.1875 L 84.28125 46.5 L 75.625 47.109375 Z M 73.3125 14.3125 "/></g></g></g><g fill="#000000" fill-opacity="1"><g transform="translate(688.277719, 406.201326)"><g><path d="M 68.953125 86.4375 L -6.5 44.6875 L -4.75 32.65625 L 79.484375 14.140625 L 77.859375 25.265625 L 5.359375 40.3125 L 70.5625 75.4375 Z M 68.953125 86.4375 "/></g></g></g><g fill="#000000" fill-opacity="1"><g transform="translate(678.061103, 475.483022)"><g><path d="M 60.671875 43.59375 L 35.421875 34.09375 L 25.0625 61.625 L 16.9375 58.5625 L 27.296875 31.03125 L 1.28125 21.265625 L -10.296875 52.046875 L -18.421875 48.984375 L -3.140625 8.34375 L 72.484375 36.78125 L 57.203125 77.421875 L 49.09375 74.375 Z M 60.671875 43.59375 "/></g></g></g><g fill="#000000" fill-opacity="1"><g transform="translate(659.631588, 524.96261)"><g><path d="M -2.453125 21.109375 L -16.75 45.46875 L -24.140625 41.140625 L -4.5 7.6875 L 65.09375 48.53125 L 59.75 57.625 Z M -2.453125 21.109375 "/></g></g></g><g fill="#000000" fill-opacity="1"><g transform="translate(641.122299, 562.745813)"><g><path d="M -31.640625 32.71875 C -26.535156 27.238281 -20.59375 23.4375 -13.8125 21.3125 C -7.03125 19.195312 -0.117188 18.972656 6.921875 20.640625 C 13.972656 22.316406 20.375 25.84375 26.125 31.21875 C 31.875 36.582031 35.820312 42.722656 37.96875 49.640625 C 40.125 56.554688 40.378906 63.46875 38.734375 70.375 C 37.085938 77.28125 33.710938 83.472656 28.609375 88.953125 C 23.441406 94.472656 17.46875 98.289062 10.6875 100.40625 C 3.914062 102.519531 -2.960938 102.742188 -9.953125 101.078125 C -16.953125 99.410156 -23.359375 95.867188 -29.171875 90.453125 C -34.972656 85.023438 -38.945312 78.875 -41.09375 72 C -43.238281 65.132812 -43.488281 58.25 -41.84375 51.34375 C -40.207031 44.445312 -36.804688 38.238281 -31.640625 32.71875 Z M -24.953125 38.953125 C -28.796875 43.066406 -31.296875 47.664062 -32.453125 52.75 C -33.617188 57.84375 -33.304688 62.992188 -31.515625 68.203125 C -29.734375 73.410156 -26.503906 78.203125 -21.828125 82.578125 C -17.085938 86.992188 -12.066406 89.898438 -6.765625 91.296875 C -1.472656 92.703125 3.65625 92.664062 8.625 91.1875 C 13.59375 89.707031 18.023438 86.882812 21.921875 82.71875 C 25.816406 78.53125 28.332031 73.90625 29.46875 68.84375 C 30.613281 63.78125 30.300781 58.660156 28.53125 53.484375 C 26.769531 48.304688 23.519531 43.507812 18.78125 39.09375 C 14.101562 34.71875 9.101562 31.8125 3.78125 30.375 C -1.53125 28.945312 -6.6875 28.988281 -11.6875 30.5 C -16.6875 32.007812 -21.109375 34.828125 -24.953125 38.953125 Z M -24.953125 38.953125 "/></g></g></g><g fill="#000000" fill-opacity="1"><g transform="translate(585.198688, 622.175776)"><g><path d="M -21.890625 82.03125 C -25.535156 76.382812 -26.628906 70.453125 -25.171875 64.234375 C -23.722656 58.015625 -19.046875 52.359375 -11.140625 47.265625 L 1.90625 38.859375 L -16.34375 10.546875 L -7.484375 4.828125 L 36.234375 72.640625 L 14.328125 86.765625 C 6.679688 91.691406 -0.320312 93.59375 -6.6875 92.46875 C -13.0625 91.34375 -18.128906 87.863281 -21.890625 82.03125 Z M -6.421875 54.5625 C -11.347656 57.738281 -14.285156 61.148438 -15.234375 64.796875 C -16.191406 68.441406 -15.394531 72.242188 -12.84375 76.203125 C -7.457031 84.566406 0.03125 85.65625 9.625 79.46875 L 22.671875 71.0625 L 6.625 46.15625 Z M -6.421875 54.5625 "/></g></g></g><g fill="#000000" fill-opacity="1"><g transform="translate(535.40716, 654.721796)"><g><path d="M 8.328125 74.234375 L -1.546875 49.140625 L -28.921875 59.921875 L -32.109375 51.84375 L -4.734375 41.0625 L -14.90625 15.203125 L -45.5 27.25 L -48.6875 19.171875 L -8.28125 3.265625 L 21.328125 78.4375 L -19.078125 94.34375 L -22.265625 86.28125 Z M 8.328125 74.234375 "/></g></g></g><g fill="#000000" fill-opacity="1"><g transform="translate(487.750201, 674.926148)"><g><path d="M -50.640625 8.8125 L -26.0625 38.03125 L -13.515625 35.84375 L -19.171875 3.328125 L -8.78125 1.53125 L 5.046875 81.03125 L -20.625 85.5 C -26.625 86.539062 -31.867188 86.390625 -36.359375 85.046875 C -40.859375 83.710938 -44.4375 81.476562 -47.09375 78.34375 C -49.757812 75.207031 -51.484375 71.394531 -52.265625 66.90625 C -53.222656 61.4375 -52.488281 56.335938 -50.0625 51.609375 C -47.632812 46.878906 -43.390625 43.273438 -37.328125 40.796875 L -63.0625 10.96875 Z M -12.0625 44.15625 L -27.34375 46.828125 C -32.96875 47.804688 -36.945312 49.925781 -39.28125 53.1875 C -41.613281 56.445312 -42.375 60.394531 -41.5625 65.03125 C -40.738281 69.75 -38.710938 73.160156 -35.484375 75.265625 C -32.265625 77.367188 -27.804688 77.925781 -22.109375 76.9375 L -6.828125 74.265625 Z M -12.0625 44.15625 "/></g></g></g><g fill="#000000" fill-opacity="1"><g transform="translate(424.338915, 684.869874)"><g/></g></g></svg>